<mxfile host="app.diagrams.net" modified="2023-05-03T16:00:14.262Z" agent="Mozilla/5.0 (Windows NT 10.0; Win64; x64) AppleWebKit/537.36 (KHTML, like Gecko) Chrome/112.0.0.0 Safari/537.36 Edg/112.0.1722.64" etag="nPSVWJgpBda_tdgUID3U" version="21.2.4" type="device">
  <diagram name="PÃ¡gina-1" id="RQqD79whM-RUdCExWJlz">
    <mxGraphModel dx="3943" dy="2287" grid="1" gridSize="10" guides="1" tooltips="1" connect="1" arrows="1" fold="1" page="1" pageScale="1" pageWidth="827" pageHeight="1169" math="0" shadow="0">
      <root>
        <mxCell id="0" />
        <mxCell id="1" parent="0" />
        <mxCell id="EDZhHMUkudXkHzifL0yu-2" value="" style="rounded=0;whiteSpace=wrap;html=1;" parent="1" vertex="1">
          <mxGeometry x="54" y="220" width="720" height="500" as="geometry" />
        </mxCell>
        <mxCell id="EDZhHMUkudXkHzifL0yu-3" value="&lt;b&gt;&lt;font style=&quot;font-size: 22px;&quot;&gt;Welcome To Caratche&lt;/font&gt;&lt;/b&gt;" style="text;html=1;strokeColor=none;fillColor=none;align=center;verticalAlign=middle;whiteSpace=wrap;rounded=0;" parent="1" vertex="1">
          <mxGeometry x="298.5" y="360" width="231" height="50" as="geometry" />
        </mxCell>
        <mxCell id="EDZhHMUkudXkHzifL0yu-4" value="We have 100000 cars at the chain" style="text;html=1;strokeColor=none;fillColor=none;align=center;verticalAlign=middle;whiteSpace=wrap;rounded=0;" parent="1" vertex="1">
          <mxGeometry x="306" y="410" width="216" height="30" as="geometry" />
        </mxCell>
        <mxCell id="EDZhHMUkudXkHzifL0yu-6" value="Connect your Wallert" style="rounded=1;fillColor=#0057D8;align=center;strokeColor=none;html=1;whiteSpace=wrap;fontColor=#ffffff;fontSize=12;sketch=0;" parent="1" vertex="1">
          <mxGeometry x="371" y="453.5" width="86" height="33" as="geometry" />
        </mxCell>
        <mxCell id="EDZhHMUkudXkHzifL0yu-8" value="" style="rounded=0;whiteSpace=wrap;html=1;" parent="1" vertex="1">
          <mxGeometry x="54" y="740" width="720" height="500" as="geometry" />
        </mxCell>
        <mxCell id="EDZhHMUkudXkHzifL0yu-9" value="&lt;b&gt;&lt;font style=&quot;font-size: 22px;&quot;&gt;Welcome To Caratche&lt;/font&gt;&lt;/b&gt;" style="text;html=1;strokeColor=none;fillColor=none;align=center;verticalAlign=middle;whiteSpace=wrap;rounded=0;" parent="1" vertex="1">
          <mxGeometry x="298.5" y="880" width="231" height="50" as="geometry" />
        </mxCell>
        <mxCell id="EDZhHMUkudXkHzifL0yu-10" value="We have 100000 cars at the chain" style="text;html=1;strokeColor=none;fillColor=none;align=center;verticalAlign=middle;whiteSpace=wrap;rounded=0;" parent="1" vertex="1">
          <mxGeometry x="306" y="930" width="216" height="30" as="geometry" />
        </mxCell>
        <mxCell id="EDZhHMUkudXkHzifL0yu-12" value="" style="shape=rect;fillColor=#e0e0e0;strokeColor=none;" parent="1" vertex="1">
          <mxGeometry x="270" y="970" width="288" height="30" as="geometry" />
        </mxCell>
        <mxCell id="EDZhHMUkudXkHzifL0yu-13" value="" style="html=1;strokeWidth=1;shadow=0;dashed=0;shape=mxgraph.ios7ui.marginRect;rx=3;ry=3;rectMargin=5;strokeColor=none;" parent="EDZhHMUkudXkHzifL0yu-12" vertex="1">
          <mxGeometry width="288" height="30" as="geometry" />
        </mxCell>
        <mxCell id="EDZhHMUkudXkHzifL0yu-14" value="Enter a VIN to search XXXX-HHH" style="shape=mxgraph.ios7.icons.looking_glass;strokeColor=#e0e0e0;fillColor=none;fontColor=#e0e0e0;labelPosition=right;verticalLabelPosition=middle;align=left;verticalAlign=middle;fontSize=6;fontStyle=0;spacingTop=2;sketch=0;html=1;" parent="EDZhHMUkudXkHzifL0yu-12" vertex="1">
          <mxGeometry x="0.5" y="0.5" width="6.5" height="6" relative="1" as="geometry">
            <mxPoint x="-54" y="-3" as="offset" />
          </mxGeometry>
        </mxCell>
        <mxCell id="EDZhHMUkudXkHzifL0yu-16" value="Search" style="rounded=1;fillColor=#0057D8;align=center;strokeColor=none;html=1;whiteSpace=wrap;fontColor=#ffffff;fontSize=12;sketch=0;" parent="1" vertex="1">
          <mxGeometry x="391" y="1010" width="46" height="20" as="geometry" />
        </mxCell>
        <mxCell id="EDZhHMUkudXkHzifL0yu-18" value="" style="rounded=0;whiteSpace=wrap;html=1;" parent="1" vertex="1">
          <mxGeometry x="54" y="1260" width="720" height="670" as="geometry" />
        </mxCell>
        <mxCell id="EDZhHMUkudXkHzifL0yu-19" value="&lt;b&gt;&lt;font style=&quot;font-size: 22px;&quot;&gt;Welcome To Caratche&lt;/font&gt;&lt;/b&gt;" style="text;html=1;strokeColor=none;fillColor=none;align=center;verticalAlign=middle;whiteSpace=wrap;rounded=0;" parent="1" vertex="1">
          <mxGeometry x="298.5" y="1310" width="231" height="50" as="geometry" />
        </mxCell>
        <mxCell id="EDZhHMUkudXkHzifL0yu-20" value="We have 100000 cars at the chain" style="text;html=1;strokeColor=none;fillColor=none;align=center;verticalAlign=middle;whiteSpace=wrap;rounded=0;" parent="1" vertex="1">
          <mxGeometry x="306" y="1360" width="216" height="30" as="geometry" />
        </mxCell>
        <mxCell id="EDZhHMUkudXkHzifL0yu-21" value="" style="shape=rect;fillColor=#e0e0e0;strokeColor=none;" parent="1" vertex="1">
          <mxGeometry x="270" y="1400" width="288" height="30" as="geometry" />
        </mxCell>
        <mxCell id="EDZhHMUkudXkHzifL0yu-22" value="" style="html=1;strokeWidth=1;shadow=0;dashed=0;shape=mxgraph.ios7ui.marginRect;rx=3;ry=3;rectMargin=5;strokeColor=none;" parent="EDZhHMUkudXkHzifL0yu-21" vertex="1">
          <mxGeometry width="288" height="30" as="geometry" />
        </mxCell>
        <mxCell id="EDZhHMUkudXkHzifL0yu-23" value="Enter a VIN to search XXXX-HHH" style="shape=mxgraph.ios7.icons.looking_glass;strokeColor=#e0e0e0;fillColor=none;fontColor=#e0e0e0;labelPosition=right;verticalLabelPosition=middle;align=left;verticalAlign=middle;fontSize=6;fontStyle=0;spacingTop=2;sketch=0;html=1;" parent="EDZhHMUkudXkHzifL0yu-21" vertex="1">
          <mxGeometry x="0.5" y="0.5" width="6.5" height="6" relative="1" as="geometry">
            <mxPoint x="-54" y="-3" as="offset" />
          </mxGeometry>
        </mxCell>
        <mxCell id="EDZhHMUkudXkHzifL0yu-24" value="Search" style="rounded=1;fillColor=#0057D8;align=center;strokeColor=none;html=1;whiteSpace=wrap;fontColor=#ffffff;fontSize=12;sketch=0;" parent="1" vertex="1">
          <mxGeometry x="391" y="1440" width="46" height="20" as="geometry" />
        </mxCell>
        <mxCell id="EDZhHMUkudXkHzifL0yu-25" value="" style="rounded=1;whiteSpace=wrap;html=1;" parent="1" vertex="1">
          <mxGeometry x="154" y="1470" width="519.25" height="420" as="geometry" />
        </mxCell>
        <mxCell id="EDZhHMUkudXkHzifL0yu-42" value="Vehicle: Maker" style="text;html=1;strokeColor=none;fillColor=none;align=center;verticalAlign=middle;whiteSpace=wrap;rounded=0;" parent="EDZhHMUkudXkHzifL0yu-25" vertex="1">
          <mxGeometry x="212" width="96" height="39.375" as="geometry" />
        </mxCell>
        <mxCell id="EDZhHMUkudXkHzifL0yu-47" value="Vehicle: Matriculation" style="text;html=1;strokeColor=none;fillColor=none;align=center;verticalAlign=middle;whiteSpace=wrap;rounded=0;" parent="EDZhHMUkudXkHzifL0yu-25" vertex="1">
          <mxGeometry x="276" width="214" height="39.375" as="geometry" />
        </mxCell>
        <mxCell id="EDZhHMUkudXkHzifL0yu-46" value="Vehicle: Year" style="text;html=1;strokeColor=none;fillColor=none;align=center;verticalAlign=middle;whiteSpace=wrap;rounded=0;" parent="EDZhHMUkudXkHzifL0yu-25" vertex="1">
          <mxGeometry x="36" y="26.25" width="96" height="39.375" as="geometry" />
        </mxCell>
        <mxCell id="EDZhHMUkudXkHzifL0yu-41" value="Vehicle: Model" style="text;html=1;strokeColor=none;fillColor=none;align=center;verticalAlign=middle;whiteSpace=wrap;rounded=0;" parent="EDZhHMUkudXkHzifL0yu-25" vertex="1">
          <mxGeometry x="116" width="96" height="39.375" as="geometry" />
        </mxCell>
        <mxCell id="EDZhHMUkudXkHzifL0yu-28" value="" style="shape=image;html=1;verticalAlign=top;verticalLabelPosition=bottom;labelBackgroundColor=#ffffff;imageAspect=0;aspect=fixed;image=https://cdn4.iconfinder.com/data/icons/evil-icons-user-interface/64/picture-128.png" parent="EDZhHMUkudXkHzifL0yu-25" vertex="1">
          <mxGeometry x="35" y="78.75" width="74" height="74" as="geometry" />
        </mxCell>
        <mxCell id="EDZhHMUkudXkHzifL0yu-30" value="" style="shape=image;html=1;verticalAlign=top;verticalLabelPosition=bottom;labelBackgroundColor=#ffffff;imageAspect=0;aspect=fixed;image=https://cdn4.iconfinder.com/data/icons/evil-icons-user-interface/64/picture-128.png" parent="EDZhHMUkudXkHzifL0yu-25" vertex="1">
          <mxGeometry x="115" y="78.75" width="74" height="74" as="geometry" />
        </mxCell>
        <mxCell id="EDZhHMUkudXkHzifL0yu-32" value="" style="shape=image;html=1;verticalAlign=top;verticalLabelPosition=bottom;labelBackgroundColor=#ffffff;imageAspect=0;aspect=fixed;image=https://cdn4.iconfinder.com/data/icons/evil-icons-user-interface/64/picture-128.png" parent="EDZhHMUkudXkHzifL0yu-25" vertex="1">
          <mxGeometry x="115" y="144.375" width="74" height="74" as="geometry" />
        </mxCell>
        <mxCell id="EDZhHMUkudXkHzifL0yu-31" value="" style="shape=image;html=1;verticalAlign=top;verticalLabelPosition=bottom;labelBackgroundColor=#ffffff;imageAspect=0;aspect=fixed;image=https://cdn4.iconfinder.com/data/icons/evil-icons-user-interface/64/picture-128.png" parent="EDZhHMUkudXkHzifL0yu-25" vertex="1">
          <mxGeometry x="35" y="144.375" width="74" height="74" as="geometry" />
        </mxCell>
        <mxCell id="EDZhHMUkudXkHzifL0yu-35" value="Vehicle Images" style="text;html=1;strokeColor=none;fillColor=none;align=center;verticalAlign=middle;whiteSpace=wrap;rounded=0;" parent="EDZhHMUkudXkHzifL0yu-25" vertex="1">
          <mxGeometry x="35" y="227.0625" width="150" height="14.4375" as="geometry" />
        </mxCell>
        <mxCell id="EDZhHMUkudXkHzifL0yu-33" value="" style="shape=image;html=1;verticalAlign=top;verticalLabelPosition=bottom;labelBackgroundColor=#ffffff;imageAspect=0;aspect=fixed;image=https://cdn0.iconfinder.com/data/icons/business-startup-10/50/18-128.png" parent="EDZhHMUkudXkHzifL0yu-25" vertex="1">
          <mxGeometry x="356.25" y="86.953125" width="107.5" height="107.5" as="geometry" />
        </mxCell>
        <mxCell id="EDZhHMUkudXkHzifL0yu-36" value="Kilometraje History" style="text;html=1;strokeColor=none;fillColor=none;align=center;verticalAlign=middle;whiteSpace=wrap;rounded=0;" parent="EDZhHMUkudXkHzifL0yu-25" vertex="1">
          <mxGeometry x="335" y="228.046875" width="150" height="14.4375" as="geometry" />
        </mxCell>
        <mxCell id="EDZhHMUkudXkHzifL0yu-49" value="Accident History" style="swimlane;whiteSpace=wrap;html=1;" parent="EDZhHMUkudXkHzifL0yu-25" vertex="1">
          <mxGeometry x="46" y="249.38" width="141" height="169.6199999999999" as="geometry">
            <mxRectangle x="46" y="249.375" width="140" height="30" as="alternateBounds" />
          </mxGeometry>
        </mxCell>
        <mxCell id="EDZhHMUkudXkHzifL0yu-51" value="Accident 1" style="swimlane;fontStyle=0;childLayout=stackLayout;horizontal=1;startSize=30;horizontalStack=0;resizeParent=1;resizeParentMax=0;resizeLast=0;collapsible=1;marginBottom=0;whiteSpace=wrap;html=1;" parent="EDZhHMUkudXkHzifL0yu-49" vertex="1" collapsed="1">
          <mxGeometry y="19.62" width="140.5" height="30" as="geometry">
            <mxRectangle y="19.62" width="141" height="120" as="alternateBounds" />
          </mxGeometry>
        </mxCell>
        <mxCell id="EDZhHMUkudXkHzifL0yu-52" value="Type" style="text;strokeColor=none;fillColor=none;align=left;verticalAlign=middle;spacingLeft=4;spacingRight=4;overflow=hidden;points=[[0,0.5],[1,0.5]];portConstraint=eastwest;rotatable=0;whiteSpace=wrap;html=1;" parent="EDZhHMUkudXkHzifL0yu-51" vertex="1">
          <mxGeometry y="30" width="141" height="30" as="geometry" />
        </mxCell>
        <mxCell id="EDZhHMUkudXkHzifL0yu-53" value="Date" style="text;strokeColor=none;fillColor=none;align=left;verticalAlign=middle;spacingLeft=4;spacingRight=4;overflow=hidden;points=[[0,0.5],[1,0.5]];portConstraint=eastwest;rotatable=0;whiteSpace=wrap;html=1;" parent="EDZhHMUkudXkHzifL0yu-51" vertex="1">
          <mxGeometry y="60" width="141" height="30" as="geometry" />
        </mxCell>
        <mxCell id="EDZhHMUkudXkHzifL0yu-54" value="Description" style="text;strokeColor=none;fillColor=none;align=left;verticalAlign=middle;spacingLeft=4;spacingRight=4;overflow=hidden;points=[[0,0.5],[1,0.5]];portConstraint=eastwest;rotatable=0;whiteSpace=wrap;html=1;" parent="EDZhHMUkudXkHzifL0yu-51" vertex="1">
          <mxGeometry y="90" width="141" height="30" as="geometry" />
        </mxCell>
        <mxCell id="EDZhHMUkudXkHzifL0yu-55" value="Accident 2" style="swimlane;fontStyle=0;childLayout=stackLayout;horizontal=1;startSize=30;horizontalStack=0;resizeParent=1;resizeParentMax=0;resizeLast=0;collapsible=1;marginBottom=0;whiteSpace=wrap;html=1;" parent="EDZhHMUkudXkHzifL0yu-49" vertex="1">
          <mxGeometry y="49.62" width="141" height="120" as="geometry">
            <mxRectangle y="49.61999999999989" width="140.5" height="30" as="alternateBounds" />
          </mxGeometry>
        </mxCell>
        <mxCell id="EDZhHMUkudXkHzifL0yu-56" value="Type" style="text;strokeColor=none;fillColor=none;align=left;verticalAlign=middle;spacingLeft=4;spacingRight=4;overflow=hidden;points=[[0,0.5],[1,0.5]];portConstraint=eastwest;rotatable=0;whiteSpace=wrap;html=1;" parent="EDZhHMUkudXkHzifL0yu-55" vertex="1">
          <mxGeometry y="30" width="141" height="30" as="geometry" />
        </mxCell>
        <mxCell id="EDZhHMUkudXkHzifL0yu-57" value="Date" style="text;strokeColor=none;fillColor=none;align=left;verticalAlign=middle;spacingLeft=4;spacingRight=4;overflow=hidden;points=[[0,0.5],[1,0.5]];portConstraint=eastwest;rotatable=0;whiteSpace=wrap;html=1;" parent="EDZhHMUkudXkHzifL0yu-55" vertex="1">
          <mxGeometry y="60" width="141" height="30" as="geometry" />
        </mxCell>
        <mxCell id="EDZhHMUkudXkHzifL0yu-58" value="Description" style="text;strokeColor=none;fillColor=none;align=left;verticalAlign=middle;spacingLeft=4;spacingRight=4;overflow=hidden;points=[[0,0.5],[1,0.5]];portConstraint=eastwest;rotatable=0;whiteSpace=wrap;html=1;" parent="EDZhHMUkudXkHzifL0yu-55" vertex="1">
          <mxGeometry y="90" width="141" height="30" as="geometry" />
        </mxCell>
        <mxCell id="EDZhHMUkudXkHzifL0yu-59" value="Repair History" style="swimlane;whiteSpace=wrap;html=1;" parent="EDZhHMUkudXkHzifL0yu-25" vertex="1">
          <mxGeometry x="322.75" y="249.3800000000001" width="141" height="169.6199999999999" as="geometry">
            <mxRectangle x="46" y="249.375" width="140" height="30" as="alternateBounds" />
          </mxGeometry>
        </mxCell>
        <mxCell id="EDZhHMUkudXkHzifL0yu-60" value="Repair 1" style="swimlane;fontStyle=0;childLayout=stackLayout;horizontal=1;startSize=30;horizontalStack=0;resizeParent=1;resizeParentMax=0;resizeLast=0;collapsible=1;marginBottom=0;whiteSpace=wrap;html=1;" parent="EDZhHMUkudXkHzifL0yu-59" vertex="1" collapsed="1">
          <mxGeometry y="19.62" width="140.5" height="30" as="geometry">
            <mxRectangle y="19.62" width="141" height="120" as="alternateBounds" />
          </mxGeometry>
        </mxCell>
        <mxCell id="EDZhHMUkudXkHzifL0yu-61" value="Type" style="text;strokeColor=none;fillColor=none;align=left;verticalAlign=middle;spacingLeft=4;spacingRight=4;overflow=hidden;points=[[0,0.5],[1,0.5]];portConstraint=eastwest;rotatable=0;whiteSpace=wrap;html=1;" parent="EDZhHMUkudXkHzifL0yu-60" vertex="1">
          <mxGeometry y="30" width="141" height="30" as="geometry" />
        </mxCell>
        <mxCell id="EDZhHMUkudXkHzifL0yu-62" value="Date" style="text;strokeColor=none;fillColor=none;align=left;verticalAlign=middle;spacingLeft=4;spacingRight=4;overflow=hidden;points=[[0,0.5],[1,0.5]];portConstraint=eastwest;rotatable=0;whiteSpace=wrap;html=1;" parent="EDZhHMUkudXkHzifL0yu-60" vertex="1">
          <mxGeometry y="60" width="141" height="30" as="geometry" />
        </mxCell>
        <mxCell id="EDZhHMUkudXkHzifL0yu-63" value="Description" style="text;strokeColor=none;fillColor=none;align=left;verticalAlign=middle;spacingLeft=4;spacingRight=4;overflow=hidden;points=[[0,0.5],[1,0.5]];portConstraint=eastwest;rotatable=0;whiteSpace=wrap;html=1;" parent="EDZhHMUkudXkHzifL0yu-60" vertex="1">
          <mxGeometry y="90" width="141" height="30" as="geometry" />
        </mxCell>
        <mxCell id="EDZhHMUkudXkHzifL0yu-64" value="Repair 2" style="swimlane;fontStyle=0;childLayout=stackLayout;horizontal=1;startSize=30;horizontalStack=0;resizeParent=1;resizeParentMax=0;resizeLast=0;collapsible=1;marginBottom=0;whiteSpace=wrap;html=1;" parent="EDZhHMUkudXkHzifL0yu-59" vertex="1">
          <mxGeometry y="49.61999999999989" width="141" height="120" as="geometry">
            <mxRectangle y="49.61999999999989" width="140.5" height="30" as="alternateBounds" />
          </mxGeometry>
        </mxCell>
        <mxCell id="EDZhHMUkudXkHzifL0yu-65" value="Type" style="text;strokeColor=none;fillColor=none;align=left;verticalAlign=middle;spacingLeft=4;spacingRight=4;overflow=hidden;points=[[0,0.5],[1,0.5]];portConstraint=eastwest;rotatable=0;whiteSpace=wrap;html=1;" parent="EDZhHMUkudXkHzifL0yu-64" vertex="1">
          <mxGeometry y="30" width="141" height="30" as="geometry" />
        </mxCell>
        <mxCell id="EDZhHMUkudXkHzifL0yu-66" value="Date" style="text;strokeColor=none;fillColor=none;align=left;verticalAlign=middle;spacingLeft=4;spacingRight=4;overflow=hidden;points=[[0,0.5],[1,0.5]];portConstraint=eastwest;rotatable=0;whiteSpace=wrap;html=1;" parent="EDZhHMUkudXkHzifL0yu-64" vertex="1">
          <mxGeometry y="60" width="141" height="30" as="geometry" />
        </mxCell>
        <mxCell id="EDZhHMUkudXkHzifL0yu-67" value="Description" style="text;strokeColor=none;fillColor=none;align=left;verticalAlign=middle;spacingLeft=4;spacingRight=4;overflow=hidden;points=[[0,0.5],[1,0.5]];portConstraint=eastwest;rotatable=0;whiteSpace=wrap;html=1;" parent="EDZhHMUkudXkHzifL0yu-64" vertex="1">
          <mxGeometry y="90" width="141" height="30" as="geometry" />
        </mxCell>
        <mxCell id="EDZhHMUkudXkHzifL0yu-37" value="Vehicle: VIN" style="text;html=1;strokeColor=none;fillColor=none;align=center;verticalAlign=middle;whiteSpace=wrap;rounded=0;" parent="EDZhHMUkudXkHzifL0yu-25" vertex="1">
          <mxGeometry x="30" y="4.690000000000055" width="102" height="30" as="geometry" />
        </mxCell>
        <mxCell id="EDZhHMUkudXkHzifL0yu-69" value="" style="rounded=0;whiteSpace=wrap;html=1;" parent="1" vertex="1">
          <mxGeometry x="827" y="1260" width="780" height="780" as="geometry" />
        </mxCell>
        <mxCell id="EDZhHMUkudXkHzifL0yu-70" value="&lt;b&gt;&lt;font style=&quot;font-size: 22px;&quot;&gt;Welcome To Caratche&lt;/font&gt;&lt;/b&gt;" style="text;html=1;strokeColor=none;fillColor=none;align=center;verticalAlign=middle;whiteSpace=wrap;rounded=0;" parent="1" vertex="1">
          <mxGeometry x="1101.5" y="1360" width="231" height="50" as="geometry" />
        </mxCell>
        <mxCell id="EDZhHMUkudXkHzifL0yu-71" value="We have 100000 cars at the chain" style="text;html=1;strokeColor=none;fillColor=none;align=center;verticalAlign=middle;whiteSpace=wrap;rounded=0;" parent="1" vertex="1">
          <mxGeometry x="1109" y="1410" width="216" height="30" as="geometry" />
        </mxCell>
        <mxCell id="EDZhHMUkudXkHzifL0yu-72" value="" style="shape=rect;fillColor=#e0e0e0;strokeColor=none;" parent="1" vertex="1">
          <mxGeometry x="1073" y="1450" width="288" height="30" as="geometry" />
        </mxCell>
        <mxCell id="EDZhHMUkudXkHzifL0yu-73" value="" style="html=1;strokeWidth=1;shadow=0;dashed=0;shape=mxgraph.ios7ui.marginRect;rx=3;ry=3;rectMargin=5;strokeColor=none;" parent="EDZhHMUkudXkHzifL0yu-72" vertex="1">
          <mxGeometry width="288" height="30" as="geometry" />
        </mxCell>
        <mxCell id="EDZhHMUkudXkHzifL0yu-74" value="Enter a VIN to search XXXX-HHH" style="shape=mxgraph.ios7.icons.looking_glass;strokeColor=#e0e0e0;fillColor=none;fontColor=#e0e0e0;labelPosition=right;verticalLabelPosition=middle;align=left;verticalAlign=middle;fontSize=6;fontStyle=0;spacingTop=2;sketch=0;html=1;" parent="EDZhHMUkudXkHzifL0yu-72" vertex="1">
          <mxGeometry x="0.5" y="0.5" width="6.5" height="6" relative="1" as="geometry">
            <mxPoint x="-54" y="-3" as="offset" />
          </mxGeometry>
        </mxCell>
        <mxCell id="EDZhHMUkudXkHzifL0yu-75" value="Search" style="rounded=1;fillColor=#0057D8;align=center;strokeColor=none;html=1;whiteSpace=wrap;fontColor=#ffffff;fontSize=12;sketch=0;" parent="1" vertex="1">
          <mxGeometry x="1194" y="1490" width="46" height="20" as="geometry" />
        </mxCell>
        <mxCell id="iXnVNEUhJmC5B5GXQQFO-27" value="" style="rounded=0;whiteSpace=wrap;html=1;" vertex="1" parent="1">
          <mxGeometry x="1221" y="1530" width="370" height="250" as="geometry" />
        </mxCell>
        <mxCell id="iXnVNEUhJmC5B5GXQQFO-28" value="" style="strokeWidth=1;shadow=0;dashed=0;align=center;html=1;shape=mxgraph.mockup.text.textBox;fontColor=#666666;align=left;fontSize=17;spacingLeft=4;spacingTop=-3;whiteSpace=wrap;strokeColor=#666666;mainText=" vertex="1" parent="1">
          <mxGeometry x="1311" y="1665" width="240" height="20" as="geometry" />
        </mxCell>
        <mxCell id="iXnVNEUhJmC5B5GXQQFO-29" value="" style="strokeWidth=1;shadow=0;dashed=0;align=center;html=1;shape=mxgraph.mockup.text.textBox;fontColor=#666666;align=left;fontSize=17;spacingLeft=4;spacingTop=-3;whiteSpace=wrap;strokeColor=#666666;mainText=;fontStyle=1" vertex="1" parent="1">
          <mxGeometry x="1311" y="1705" width="240" height="20" as="geometry" />
        </mxCell>
        <mxCell id="iXnVNEUhJmC5B5GXQQFO-31" value="" style="strokeWidth=1;shadow=0;dashed=0;align=center;html=1;shape=mxgraph.mockup.text.textBox;fontColor=#666666;align=left;fontSize=17;spacingLeft=4;spacingTop=-3;whiteSpace=wrap;strokeColor=#666666;mainText=" vertex="1" parent="1">
          <mxGeometry x="1311" y="1585" width="240" height="20" as="geometry" />
        </mxCell>
        <mxCell id="iXnVNEUhJmC5B5GXQQFO-32" value="VIN" style="text;html=1;strokeColor=none;fillColor=none;align=center;verticalAlign=middle;whiteSpace=wrap;rounded=0;" vertex="1" parent="1">
          <mxGeometry x="1241" y="1580" width="60" height="30" as="geometry" />
        </mxCell>
        <mxCell id="iXnVNEUhJmC5B5GXQQFO-33" value="" style="strokeWidth=1;shadow=0;dashed=0;align=center;html=1;shape=mxgraph.mockup.text.textBox;fontColor=#666666;align=left;fontSize=17;spacingLeft=4;spacingTop=-3;whiteSpace=wrap;strokeColor=#666666;mainText=" vertex="1" parent="1">
          <mxGeometry x="1311" y="1625" width="240" height="20" as="geometry" />
        </mxCell>
        <mxCell id="iXnVNEUhJmC5B5GXQQFO-34" value="Type" style="text;html=1;strokeColor=none;fillColor=none;align=center;verticalAlign=middle;whiteSpace=wrap;rounded=0;" vertex="1" parent="1">
          <mxGeometry x="1241" y="1620" width="60" height="30" as="geometry" />
        </mxCell>
        <mxCell id="iXnVNEUhJmC5B5GXQQFO-35" value="Year" style="text;html=1;strokeColor=none;fillColor=none;align=center;verticalAlign=middle;whiteSpace=wrap;rounded=0;" vertex="1" parent="1">
          <mxGeometry x="1241" y="1660" width="60" height="30" as="geometry" />
        </mxCell>
        <mxCell id="iXnVNEUhJmC5B5GXQQFO-36" value="Description" style="text;html=1;strokeColor=none;fillColor=none;align=center;verticalAlign=middle;whiteSpace=wrap;rounded=0;" vertex="1" parent="1">
          <mxGeometry x="1241" y="1699" width="60" height="30" as="geometry" />
        </mxCell>
        <mxCell id="iXnVNEUhJmC5B5GXQQFO-38" value="Add reparation" style="rounded=1;fillColor=#0057D8;align=center;strokeColor=none;html=1;whiteSpace=wrap;fontColor=#ffffff;fontSize=12;sketch=0;" vertex="1" parent="1">
          <mxGeometry x="1374" y="1735" width="90" height="20" as="geometry" />
        </mxCell>
        <mxCell id="iXnVNEUhJmC5B5GXQQFO-39" value="Add Reparation" style="text;html=1;strokeColor=none;fillColor=none;align=center;verticalAlign=middle;whiteSpace=wrap;rounded=0;" vertex="1" parent="1">
          <mxGeometry x="1367" y="1545" width="104" height="30" as="geometry" />
        </mxCell>
        <mxCell id="iXnVNEUhJmC5B5GXQQFO-40" value="" style="rounded=0;whiteSpace=wrap;html=1;" vertex="1" parent="1">
          <mxGeometry x="1221" y="1790" width="370" height="230" as="geometry" />
        </mxCell>
        <mxCell id="iXnVNEUhJmC5B5GXQQFO-41" value="" style="strokeWidth=1;shadow=0;dashed=0;align=center;html=1;shape=mxgraph.mockup.text.textBox;fontColor=#666666;align=left;fontSize=17;spacingLeft=4;spacingTop=-3;whiteSpace=wrap;strokeColor=#666666;mainText=" vertex="1" parent="1">
          <mxGeometry x="1298" y="1910" width="240" height="20" as="geometry" />
        </mxCell>
        <mxCell id="iXnVNEUhJmC5B5GXQQFO-44" value="" style="strokeWidth=1;shadow=0;dashed=0;align=center;html=1;shape=mxgraph.mockup.text.textBox;fontColor=#666666;align=left;fontSize=17;spacingLeft=4;spacingTop=-3;whiteSpace=wrap;strokeColor=#666666;mainText=" vertex="1" parent="1">
          <mxGeometry x="1298" y="1830" width="240" height="20" as="geometry" />
        </mxCell>
        <mxCell id="iXnVNEUhJmC5B5GXQQFO-45" value="VIN" style="text;html=1;strokeColor=none;fillColor=none;align=center;verticalAlign=middle;whiteSpace=wrap;rounded=0;" vertex="1" parent="1">
          <mxGeometry x="1228" y="1825" width="60" height="30" as="geometry" />
        </mxCell>
        <mxCell id="iXnVNEUhJmC5B5GXQQFO-46" value="" style="strokeWidth=1;shadow=0;dashed=0;align=center;html=1;shape=mxgraph.mockup.text.textBox;fontColor=#666666;align=left;fontSize=17;spacingLeft=4;spacingTop=-3;whiteSpace=wrap;strokeColor=#666666;mainText=" vertex="1" parent="1">
          <mxGeometry x="1298" y="1870" width="240" height="20" as="geometry" />
        </mxCell>
        <mxCell id="iXnVNEUhJmC5B5GXQQFO-47" value="Kilometers" style="text;html=1;strokeColor=none;fillColor=none;align=center;verticalAlign=middle;whiteSpace=wrap;rounded=0;" vertex="1" parent="1">
          <mxGeometry x="1228" y="1865" width="60" height="30" as="geometry" />
        </mxCell>
        <mxCell id="iXnVNEUhJmC5B5GXQQFO-48" value="Year" style="text;html=1;strokeColor=none;fillColor=none;align=center;verticalAlign=middle;whiteSpace=wrap;rounded=0;" vertex="1" parent="1">
          <mxGeometry x="1228" y="1905" width="60" height="30" as="geometry" />
        </mxCell>
        <mxCell id="iXnVNEUhJmC5B5GXQQFO-51" value="Add Kilometers" style="rounded=1;fillColor=#0057D8;align=center;strokeColor=none;html=1;whiteSpace=wrap;fontColor=#ffffff;fontSize=12;sketch=0;" vertex="1" parent="1">
          <mxGeometry x="1356.5" y="1945" width="99" height="20" as="geometry" />
        </mxCell>
        <mxCell id="iXnVNEUhJmC5B5GXQQFO-52" value="Add Kilometers" style="text;html=1;strokeColor=none;fillColor=none;align=center;verticalAlign=middle;whiteSpace=wrap;rounded=0;" vertex="1" parent="1">
          <mxGeometry x="1364" y="1795" width="104" height="30" as="geometry" />
        </mxCell>
        <mxCell id="iXnVNEUhJmC5B5GXQQFO-55" value="" style="rounded=0;whiteSpace=wrap;html=1;" vertex="1" parent="1">
          <mxGeometry x="840" y="1790" width="370" height="230" as="geometry" />
        </mxCell>
        <mxCell id="iXnVNEUhJmC5B5GXQQFO-56" value="" style="strokeWidth=1;shadow=0;dashed=0;align=center;html=1;shape=mxgraph.mockup.text.textBox;fontColor=#666666;align=left;fontSize=17;spacingLeft=4;spacingTop=-3;whiteSpace=wrap;strokeColor=#666666;mainText=" vertex="1" parent="1">
          <mxGeometry x="930" y="1915" width="240" height="20" as="geometry" />
        </mxCell>
        <mxCell id="iXnVNEUhJmC5B5GXQQFO-57" value="" style="strokeWidth=1;shadow=0;dashed=0;align=center;html=1;shape=mxgraph.mockup.text.textBox;fontColor=#666666;align=left;fontSize=17;spacingLeft=4;spacingTop=-3;whiteSpace=wrap;strokeColor=#666666;mainText=;fontStyle=1" vertex="1" parent="1">
          <mxGeometry x="930" y="1955" width="240" height="20" as="geometry" />
        </mxCell>
        <mxCell id="iXnVNEUhJmC5B5GXQQFO-58" value="" style="strokeWidth=1;shadow=0;dashed=0;align=center;html=1;shape=mxgraph.mockup.text.textBox;fontColor=#666666;align=left;fontSize=17;spacingLeft=4;spacingTop=-3;whiteSpace=wrap;strokeColor=#666666;mainText=" vertex="1" parent="1">
          <mxGeometry x="930" y="1835" width="240" height="20" as="geometry" />
        </mxCell>
        <mxCell id="iXnVNEUhJmC5B5GXQQFO-59" value="VIN" style="text;html=1;strokeColor=none;fillColor=none;align=center;verticalAlign=middle;whiteSpace=wrap;rounded=0;" vertex="1" parent="1">
          <mxGeometry x="860" y="1830" width="60" height="30" as="geometry" />
        </mxCell>
        <mxCell id="iXnVNEUhJmC5B5GXQQFO-60" value="" style="strokeWidth=1;shadow=0;dashed=0;align=center;html=1;shape=mxgraph.mockup.text.textBox;fontColor=#666666;align=left;fontSize=17;spacingLeft=4;spacingTop=-3;whiteSpace=wrap;strokeColor=#666666;mainText=" vertex="1" parent="1">
          <mxGeometry x="930" y="1875" width="240" height="20" as="geometry" />
        </mxCell>
        <mxCell id="iXnVNEUhJmC5B5GXQQFO-61" value="Type" style="text;html=1;strokeColor=none;fillColor=none;align=center;verticalAlign=middle;whiteSpace=wrap;rounded=0;" vertex="1" parent="1">
          <mxGeometry x="860" y="1870" width="60" height="30" as="geometry" />
        </mxCell>
        <mxCell id="iXnVNEUhJmC5B5GXQQFO-62" value="Year" style="text;html=1;strokeColor=none;fillColor=none;align=center;verticalAlign=middle;whiteSpace=wrap;rounded=0;" vertex="1" parent="1">
          <mxGeometry x="860" y="1910" width="60" height="30" as="geometry" />
        </mxCell>
        <mxCell id="iXnVNEUhJmC5B5GXQQFO-63" value="Description" style="text;html=1;strokeColor=none;fillColor=none;align=center;verticalAlign=middle;whiteSpace=wrap;rounded=0;" vertex="1" parent="1">
          <mxGeometry x="860" y="1949" width="60" height="30" as="geometry" />
        </mxCell>
        <mxCell id="iXnVNEUhJmC5B5GXQQFO-64" value="Add reparation" style="rounded=1;fillColor=#0057D8;align=center;strokeColor=none;html=1;whiteSpace=wrap;fontColor=#ffffff;fontSize=12;sketch=0;" vertex="1" parent="1">
          <mxGeometry x="993" y="1985" width="90" height="20" as="geometry" />
        </mxCell>
        <mxCell id="iXnVNEUhJmC5B5GXQQFO-65" value="Add Accident" style="text;html=1;strokeColor=none;fillColor=none;align=center;verticalAlign=middle;whiteSpace=wrap;rounded=0;" vertex="1" parent="1">
          <mxGeometry x="986" y="1795" width="104" height="30" as="geometry" />
        </mxCell>
        <mxCell id="iXnVNEUhJmC5B5GXQQFO-66" value="" style="rounded=0;whiteSpace=wrap;html=1;" vertex="1" parent="1">
          <mxGeometry x="840" y="1530" width="370" height="250" as="geometry" />
        </mxCell>
        <mxCell id="iXnVNEUhJmC5B5GXQQFO-67" value="" style="strokeWidth=1;shadow=0;dashed=0;align=center;html=1;shape=mxgraph.mockup.text.textBox;fontColor=#666666;align=left;fontSize=17;spacingLeft=4;spacingTop=-3;whiteSpace=wrap;strokeColor=#666666;mainText=" vertex="1" parent="1">
          <mxGeometry x="930" y="1645" width="240" height="20" as="geometry" />
        </mxCell>
        <mxCell id="iXnVNEUhJmC5B5GXQQFO-68" value="" style="strokeWidth=1;shadow=0;dashed=0;align=center;html=1;shape=mxgraph.mockup.text.textBox;fontColor=#666666;align=left;fontSize=17;spacingLeft=4;spacingTop=-3;whiteSpace=wrap;strokeColor=#666666;mainText=;fontStyle=1" vertex="1" parent="1">
          <mxGeometry x="930" y="1685" width="240" height="20" as="geometry" />
        </mxCell>
        <mxCell id="iXnVNEUhJmC5B5GXQQFO-69" value="" style="strokeWidth=1;shadow=0;dashed=0;align=center;html=1;shape=mxgraph.mockup.text.textBox;fontColor=#666666;align=left;fontSize=17;spacingLeft=4;spacingTop=-3;whiteSpace=wrap;strokeColor=#666666;mainText=" vertex="1" parent="1">
          <mxGeometry x="930" y="1725" width="240" height="20" as="geometry" />
        </mxCell>
        <mxCell id="iXnVNEUhJmC5B5GXQQFO-70" value="" style="strokeWidth=1;shadow=0;dashed=0;align=center;html=1;shape=mxgraph.mockup.text.textBox;fontColor=#666666;align=left;fontSize=17;spacingLeft=4;spacingTop=-3;whiteSpace=wrap;strokeColor=#666666;mainText=" vertex="1" parent="1">
          <mxGeometry x="930" y="1565" width="240" height="20" as="geometry" />
        </mxCell>
        <mxCell id="iXnVNEUhJmC5B5GXQQFO-71" value="Maker" style="text;html=1;strokeColor=none;fillColor=none;align=center;verticalAlign=middle;whiteSpace=wrap;rounded=0;" vertex="1" parent="1">
          <mxGeometry x="860" y="1560" width="60" height="30" as="geometry" />
        </mxCell>
        <mxCell id="iXnVNEUhJmC5B5GXQQFO-72" value="" style="strokeWidth=1;shadow=0;dashed=0;align=center;html=1;shape=mxgraph.mockup.text.textBox;fontColor=#666666;align=left;fontSize=17;spacingLeft=4;spacingTop=-3;whiteSpace=wrap;strokeColor=#666666;mainText=" vertex="1" parent="1">
          <mxGeometry x="930" y="1605" width="240" height="20" as="geometry" />
        </mxCell>
        <mxCell id="iXnVNEUhJmC5B5GXQQFO-73" value="Model" style="text;html=1;strokeColor=none;fillColor=none;align=center;verticalAlign=middle;whiteSpace=wrap;rounded=0;" vertex="1" parent="1">
          <mxGeometry x="860" y="1600" width="60" height="30" as="geometry" />
        </mxCell>
        <mxCell id="iXnVNEUhJmC5B5GXQQFO-74" value="Year" style="text;html=1;strokeColor=none;fillColor=none;align=center;verticalAlign=middle;whiteSpace=wrap;rounded=0;" vertex="1" parent="1">
          <mxGeometry x="860" y="1640" width="60" height="30" as="geometry" />
        </mxCell>
        <mxCell id="iXnVNEUhJmC5B5GXQQFO-75" value="VIN" style="text;html=1;strokeColor=none;fillColor=none;align=center;verticalAlign=middle;whiteSpace=wrap;rounded=0;" vertex="1" parent="1">
          <mxGeometry x="860" y="1679" width="60" height="30" as="geometry" />
        </mxCell>
        <mxCell id="iXnVNEUhJmC5B5GXQQFO-76" value="Wallet Owner" style="text;html=1;strokeColor=none;fillColor=none;align=center;verticalAlign=middle;whiteSpace=wrap;rounded=0;" vertex="1" parent="1">
          <mxGeometry x="860" y="1720" width="60" height="30" as="geometry" />
        </mxCell>
        <mxCell id="iXnVNEUhJmC5B5GXQQFO-77" value="Create" style="rounded=1;fillColor=#0057D8;align=center;strokeColor=none;html=1;whiteSpace=wrap;fontColor=#ffffff;fontSize=12;sketch=0;" vertex="1" parent="1">
          <mxGeometry x="1012" y="1750" width="36" height="20" as="geometry" />
        </mxCell>
        <mxCell id="iXnVNEUhJmC5B5GXQQFO-78" value="Create Car" style="text;html=1;strokeColor=none;fillColor=none;align=center;verticalAlign=middle;whiteSpace=wrap;rounded=0;" vertex="1" parent="1">
          <mxGeometry x="986" y="1530" width="104" height="30" as="geometry" />
        </mxCell>
      </root>
    </mxGraphModel>
  </diagram>
</mxfile>
